<svg width="34" height="30" viewBox="0 0 34 30" fill="none" xmlns="http://www.w3.org/2000/svg">
    <path d="M11.5075 2.88137L8.8806 4.05722V15.3454L11.5075 16.2861V2.88137Z" fill="#0065C1"/>
    <path d="M17 1L13.4179 2.41103L13.058 16.2861L14.4493 17.0637V24.5171H12.5942V17.7521L8.42029 16.2861L7.02899 17.0637V25.5545L5.4058 26.243V17.0637L4.01449 18.6701V28.0776C9.58936 26.0232 19.5661 24.4873 31.0896 28.708V12.9937L24.403 10.8772L22.0149 11.5827V24.9874H20.1045V12.053L17.9552 12.9937V24.5171H17V12.053L24.403 9.46616V4.05722L17 1Z" fill="#0065C1"/>
    <path d="M31.0895 28.708V12.9937L24.403 10.8772L22.0149 11.5827V24.9874H20.1045V12.053L17.9552 12.9937V24.5171H17V12.053L24.403 9.46616V4.05722L17 1L13.4179 2.41103L13.058 16.2861L14.4493 17.0637V24.5171H12.5942V17.7521L8.42029 16.2861L7.02899 17.0637V25.5545L5.4058 26.243V17.0637L4.01449 18.6701V28.0776M1 29.4557C1.77053 29.0085 2.78556 28.5305 4.01449 28.0776M33 29.4557C20.6743 24.3203 9.89526 25.9105 4.01449 28.0776M8.8806 4.05722L11.5075 2.88137V16.2861L8.8806 15.3454V4.05722Z" stroke="#0065C1" stroke-width="0.5" stroke-linecap="round"/>
</svg>
